<?xml version="1.0" standalone="no"?>
<!DOCTYPE svg PUBLIC "-//W3C//DTD SVG 20010904//EN"
 "http://www.w3.org/TR/2001/REC-SVG-20010904/DTD/svg10.dtd">
<svg version="1.0" xmlns="http://www.w3.org/2000/svg"
 width="310.000000pt" height="310.000000pt" viewBox="0 0 310.000000 310.000000"
 preserveAspectRatio="xMidYMid meet">
<metadata>
Created by potrace 1.11, written by Peter Selinger 2001-2013
</metadata>
<g transform="translate(0.000000,310.000000) scale(0.100000,-0.100000)"
fill="#000000" stroke="none">
<path d="M1223 2991 c-89 -41 -110 -150 -37 -192 35 -20 138 -22 174 -4 66 34
95 111 62 163 -33 50 -126 66 -199 33z"/>
<path d="M2154 2935 c-2 -5 -2 -190 -1 -410 l2 -400 125 0 125 0 1 88 c1 49 4
91 7 94 4 3 28 -30 54 -72 73 -118 58 -111 218 -110 103 1 139 4 137 13 -1 7
-47 83 -103 169 l-100 156 38 56 c21 31 40 58 43 61 6 6 83 119 94 137 5 9
-29 12 -139 12 -80 1 -145 -3 -145 -8 0 -8 -98 -161 -103 -161 -2 0 -2 83 -2
186 0 102 -2 188 -5 192 -8 11 -242 8 -246 -3z"/>
<path d="M285 2901 l-31 -6 0 -382 c0 -211 2 -384 5 -384 15 -4 247 -5 257 -2
7 3 11 47 10 133 l-1 129 35 -22 c19 -11 37 -23 40 -26 9 -10 69 -51 74 -51 3
0 44 -27 91 -60 47 -33 88 -60 90 -60 2 0 20 -11 39 -24 26 -17 47 -23 83 -21
l48 1 3 387 c2 364 1 387 -15 388 -79 3 -247 -1 -252 -6 -3 -4 -7 -66 -7 -138
-1 -73 -2 -138 -3 -145 -1 -8 -24 5 -58 30 -32 24 -89 66 -128 93 -38 27 -74
53 -80 57 -35 28 -135 97 -151 105 -10 5 -33 7 -49 4z"/>
<path d="M1775 2735 c-162 -48 -258 -176 -249 -332 5 -99 22 -142 79 -198 90
-90 236 -121 381 -80 l51 15 -1 115 c0 63 -2 115 -3 115 -2 0 -27 -13 -56 -30
-94 -53 -142 -34 -135 51 8 82 84 164 151 161 l33 -1 1 89 2 90 -40 10 c-50
14 -161 11 -214 -5z"/>
<path d="M1149 2698 c-1 -36 0 -508 0 -548 l1 -25 140 0 140 0 0 302 0 302
-140 0 -140 1 -1 -32z"/>
<path d="M256 1893 c-3 -4 -6 -172 -6 -375 l0 -369 128 3 127 3 5 115 c5 106
6 113 20 94 22 -31 157 -174 165 -174 6 0 17 11 114 119 35 39 67 69 70 66 3
-3 5 -54 5 -113 l1 -107 153 -3 152 -3 0 88 c1 116 1 635 0 649 0 14 -89 13
-111 -1 -14 -9 -65 -54 -239 -215 -21 -19 -56 -52 -79 -73 l-42 -39 -57 53
c-31 30 -62 58 -68 64 -6 5 -61 57 -123 115 -109 102 -114 105 -161 107 -26 1
-51 -1 -54 -4z"/>
<path d="M1875 1890 c-1 -3 -3 -170 -2 -372 l0 -368 129 0 128 0 1 73 c0 39 1
92 1 116 l0 45 45 -50 c109 -118 122 -132 133 -139 12 -7 40 20 142 138 23 26
44 47 47 47 4 0 6 -51 6 -112 l0 -113 151 -3 152 -3 3 28 c2 16 4 183 3 373
l0 345 -52 1 c-55 1 -47 7 -178 -115 -136 -126 -226 -206 -238 -213 -7 -4 -54
34 -116 93 -245 233 -245 233 -301 234 -28 0 -52 -2 -54 -5z"/>
<path d="M1570 1752 c-181 -25 -298 -152 -298 -327 0 -142 82 -242 230 -280
90 -24 257 -1 259 34 1 20 1 193 0 204 -1 4 -25 -6 -54 -23 -66 -37 -101 -39
-123 -5 -35 54 21 167 99 200 19 8 42 12 53 9 18 -5 19 1 19 82 -1 83 -2 87
-25 96 -27 10 -119 16 -160 10z"/>
<path d="M325 946 c-67 -30 -99 -100 -70 -156 18 -34 62 -53 120 -52 126 3
198 118 120 192 -29 28 -122 36 -170 16z"/>
<path d="M636 891 c-1 -3 -2 -179 -2 -391 l1 -385 133 -3 132 -3 -2 393 -3
393 -128 1 c-70 1 -129 -2 -131 -5z"/>
<path d="M1011 503 l0 -393 129 0 c93 0 129 3 132 13 3 6 4 183 4 392 l-1 380
-132 1 -133 1 1 -394z"/>
<path d="M1610 706 c-72 -19 -116 -45 -160 -92 -57 -62 -90 -148 -93 -239 -1
-42 18 -117 39 -152 27 -46 90 -103 115 -103 8 0 19 -3 23 -7 7 -7 18 -10 67
-17 65 -10 171 27 217 75 15 16 30 29 33 29 3 0 20 -20 37 -44 l32 -44 75 1
75 1 0 291 0 290 -77 -1 c-75 -1 -78 -3 -110 -37 l-32 -36 -19 24 c-44 55
-141 82 -222 61z m209 -276 l0 -80 -38 -25 c-50 -33 -105 -43 -125 -22 -18 18
-21 73 -6 111 13 35 84 104 112 108 48 8 56 -5 57 -92z"/>
<path d="M2570 706 c-62 -17 -113 -43 -141 -72 -12 -13 -26 -24 -29 -24 -4 0
-20 18 -35 40 l-28 40 -79 0 -79 0 1 -290 1 -290 140 0 139 0 0 198 c0 108 4
202 8 208 13 19 39 23 61 8 42 -30 48 -59 47 -240 l-1 -171 142 0 141 1 -1
232 -2 232 -30 43 c-53 75 -158 110 -255 85z"/>
<path d="M260 692 c-6 -2 -10 -109 -10 -293 l0 -289 135 0 c101 0 135 3 135
13 1 18 1 550 1 562 -1 9 -236 15 -261 7z"/>
</g>
</svg>
